<?xml version="1.0" encoding="UTF-8" standalone="no"?>
<!-- Generator: Adobe Illustrator 16.0.0, SVG Export Plug-In . SVG Version: 6.00 Build 0)  -->

<svg
   xmlns:dc="http://purl.org/dc/elements/1.1/"
   xmlns:cc="http://creativecommons.org/ns#"
   xmlns:rdf="http://www.w3.org/1999/02/22-rdf-syntax-ns#"
   xmlns:svg="http://www.w3.org/2000/svg"
   xmlns="http://www.w3.org/2000/svg"
   xmlns:sodipodi="http://sodipodi.sourceforge.net/DTD/sodipodi-0.dtd"
   xmlns:inkscape="http://www.inkscape.org/namespaces/inkscape"
   version="1.1"
   id="Layer_1"
   x="0px"
   y="0px"
   width="2205.336px"
   height="365.336px"
   viewBox="0 0 551.334 91.334"
   enable-background="new 0 0 551.334 91.334"
   xml:space="preserve"
   inkscape:version="0.48.4 r9939"
   sodipodi:docname="Ooredoo1.svg"><title
   id="title3014">Ooredoo</title><metadata
   id="metadata37"><rdf:RDF><cc:Work
       rdf:about=""><dc:format>image/svg+xml</dc:format><dc:type
         rdf:resource="http://purl.org/dc/dcmitype/StillImage" /><dc:title>Ooredoo</dc:title></cc:Work></rdf:RDF></metadata><defs
   id="defs35" /><sodipodi:namedview
   pagecolor="#ffffff"
   bordercolor="#666666"
   borderopacity="1"
   objecttolerance="10"
   gridtolerance="10"
   guidetolerance="10"
   inkscape:pageopacity="0"
   inkscape:pageshadow="2"
   inkscape:window-width="1280"
   inkscape:window-height="962"
   id="namedview33"
   showgrid="false"
   inkscape:zoom="0.15915943"
   inkscape:cx="1102.668"
   inkscape:cy="182.668"
   inkscape:window-x="-8"
   inkscape:window-y="-8"
   inkscape:window-maximized="1"
   inkscape:current-layer="Layer_1" />
<g
   id="Base">
	<path
   fill="#CD2027"
   d="M365.34,45.36c0,7.109-5.71,12.87-12.75,12.87s-12.75-5.761-12.75-12.87c0-7.11,5.71-12.88,12.75-12.88   S365.34,38.25,365.34,45.36z"
   id="path4" />
	<path
   fill="#CD2027"
   d="M287.25,38h-22.37c2-2.92,5.7-4.96,9.5-5.42c0.01,0,0.01,0,0.02,0c0.53-0.07,1.06-0.1,1.6-0.1   s1.07,0.03,1.6,0.1h0.03C281.45,33.04,285.24,35.08,287.25,38z"
   id="path6" />
	<path
   fill="#CD2027"
   d="M505.75,3c-16.94,0-31.57,9.79-38.5,23.98C460.32,12.79,445.69,3,428.75,3c-16.54,0-30.89,9.33-38,22.99   c-3.67-7.04-9.26-12.94-16.08-16.99v36.48c0,12.1-9.79,21.92-21.87,21.92s-21.88-9.82-21.88-21.92c0-12.101,9.8-21.92,21.88-21.92   c0.29,0,0.58,0.01,0.87,0.02c4.34,0.25,8.34,2.25,11.67,4.59V4.88C361.36,3.65,357.13,3,352.75,3c-16.94,0-31.57,9.79-38.5,23.98   C307.32,12.79,292.69,3,275.75,3c-16.54,0-30.89,9.33-38,22.99C230.64,12.33,216.29,3,199.75,3c-16.94,0-31.57,9.79-38.5,23.98   C154.32,12.79,139.69,3,122.75,3c-16.54,0-30.89,9.33-38,22.99C77.64,12.33,63.29,3,46.75,3C23.14,3,4,22.02,4,45.48   C4,68.94,23.14,87.96,46.75,87.96c16.54,0,30.89-9.33,38-22.99c7.11,13.66,21.46,22.99,38,22.99c16.94,0,31.57-9.79,38.5-23.979   c6.93,14.189,21.56,23.979,38.5,23.979c16.54,0,30.89-9.33,38-22.99c7.11,13.66,21.46,22.99,38,22.99   c16.94,0,31.57-9.79,38.5-23.979c6.93,14.189,21.56,23.979,38.5,23.979c16.54,0,30.89-9.33,38-22.99   c7.11,13.66,21.46,22.99,38,22.99c16.94,0,31.57-9.79,38.5-23.979c6.93,14.189,21.56,23.979,38.5,23.979   c23.61,0,42.75-19.02,42.75-42.479C548.5,22.02,529.36,3,505.75,3z M46.62,67.58c-12.08,0-21.87-9.811-21.87-21.91   c0-12.11,9.79-21.92,21.87-21.92c12.09,0,21.88,9.81,21.88,21.92C68.5,57.77,58.71,67.58,46.62,67.58z M123.21,67.4   c-12.08,0-21.88-9.82-21.88-21.92c0-12.101,9.8-21.92,21.88-21.92s21.87,9.82,21.87,21.92C145.08,57.58,135.29,67.4,123.21,67.4z    M212.01,43.33c-0.96-6.15-6.23-10.85-12.59-10.85c-7.04,0-12.75,5.76-12.75,12.88v20.72h-8.91v-20.6   c0-12.101,9.79-21.92,21.87-21.92c11.36,0,20.7,8.68,21.78,19.77H212.01z M298.07,45.83H263.26c0.06,1.689,0.44,3.29,1.09,4.75   c1.98,4.51,6.45,7.65,11.65,7.65s9.67-3.141,11.65-7.65h9.83c-2.29,9.64-10.94,16.82-21.271,16.82c-12.08,0-21.88-9.82-21.88-21.92   c0-12.101,9.8-21.92,21.88-21.92s21.87,9.82,21.87,21.92C298.08,45.6,298.08,45.71,298.07,45.83z M429.4,67.4   c-12.08,0-21.881-9.82-21.881-21.92c0-12.101,9.801-21.92,21.881-21.92s21.869,9.82,21.869,21.92   C451.27,57.58,441.48,67.4,429.4,67.4z M505.58,67.4c-12.08,0-21.87-9.82-21.87-21.92c0-12.101,9.79-21.92,21.87-21.92   c12.09,0,21.88,9.82,21.88,21.92C527.46,57.58,517.67,67.4,505.58,67.4z"
   id="path8" />
	<path
   fill="#CD2027"
   d="M518.33,45.36c0,7.109-5.7,12.87-12.74,12.87c-7.05,0-12.76-5.761-12.76-12.87   c0-7.11,5.71-12.88,12.76-12.88C512.63,32.48,518.33,38.25,518.33,45.36z"
   id="path10" />
	<path
   fill="#CD2027"
   d="M441.94,45.36c0,7.109-5.71,12.87-12.75,12.87s-12.75-5.761-12.75-12.87c0-7.11,5.71-12.88,12.75-12.88   S441.94,38.25,441.94,45.36z"
   id="path12" />
	<path
   fill="#CD2027"
   d="M135.75,45.36c0,7.109-5.71,12.87-12.75,12.87s-12.75-5.761-12.75-12.87c0-7.12,5.71-12.88,12.75-12.88   S135.75,38.24,135.75,45.36z"
   id="path14" />
	<path
   fill="#CD2027"
   d="M59.17,45.54c0,7.11-5.71,12.88-12.75,12.88s-12.75-5.77-12.75-12.88c0-7.11,5.71-12.87,12.75-12.87   S59.17,38.43,59.17,45.54z"
   id="path16" />
</g>
<g
   id="Ooredoo">
	<path
   fill="#FFFFFF"
   d="M46.62,23.75c-12.08,0-21.87,9.81-21.87,21.92c0,12.1,9.79,21.91,21.87,21.91   c12.09,0,21.88-9.811,21.88-21.91C68.5,33.56,58.71,23.75,46.62,23.75z M46.42,58.42c-7.04,0-12.75-5.77-12.75-12.88   c0-7.11,5.71-12.87,12.75-12.87s12.75,5.76,12.75,12.87C59.17,52.65,53.46,58.42,46.42,58.42z"
   id="path19" />
	<path
   fill="#FFFFFF"
   d="M123.21,23.56c-12.08,0-21.88,9.82-21.88,21.92c0,12.1,9.8,21.92,21.88,21.92s21.87-9.82,21.87-21.92   C145.08,33.38,135.29,23.56,123.21,23.56z M123,58.23c-7.04,0-12.75-5.761-12.75-12.87c0-7.12,5.71-12.88,12.75-12.88   s12.75,5.76,12.75,12.88C135.75,52.47,130.04,58.23,123,58.23z"
   id="path21" />
	<path
   fill="#FFFFFF"
   d="M429.4,23.56c-12.08,0-21.881,9.82-21.881,21.92c0,12.1,9.801,21.92,21.881,21.92s21.869-9.82,21.869-21.92   C451.27,33.38,441.48,23.56,429.4,23.56z M429.19,58.23c-7.04,0-12.75-5.761-12.75-12.87c0-7.11,5.71-12.88,12.75-12.88   s12.75,5.77,12.75,12.88C441.94,52.47,436.23,58.23,429.19,58.23z"
   id="path23" />
	<path
   fill="#FFFFFF"
   d="M505.58,23.56c-12.08,0-21.87,9.82-21.87,21.92c0,12.1,9.79,21.92,21.87,21.92   c12.09,0,21.88-9.82,21.88-21.92C527.46,33.38,517.67,23.56,505.58,23.56z M505.59,58.23c-7.05,0-12.76-5.761-12.76-12.87   c0-7.11,5.71-12.88,12.76-12.88c7.04,0,12.74,5.77,12.74,12.88C518.33,52.47,512.63,58.23,505.59,58.23z"
   id="path25" />
	<path
   fill="#FFFFFF"
   d="M365.34,4.88v23.29c-3.33-2.34-7.33-4.34-11.67-4.59c-0.29-0.01-0.58-0.02-0.87-0.02   c-12.08,0-21.88,9.82-21.88,21.92c0,12.1,9.8,21.92,21.88,21.92s21.87-9.82,21.87-21.92V9C371.77,7.27,368.64,5.88,365.34,4.88z    M352.59,58.23c-7.04,0-12.75-5.761-12.75-12.87c0-7.11,5.71-12.88,12.75-12.88s12.75,5.77,12.75,12.88   C365.34,52.47,359.63,58.23,352.59,58.23z"
   id="path27" />
	<path
   fill="#FFFFFF"
   d="M298.08,45.48c0-12.101-9.79-21.92-21.87-21.92s-21.88,9.82-21.88,21.92c0,12.1,9.8,21.92,21.88,21.92   c10.33,0,18.98-7.181,21.271-16.82h-9.83c-1.98,4.51-6.45,7.65-11.65,7.65s-9.67-3.141-11.65-7.65c-0.65-1.46-1.03-3.061-1.09-4.75   h34.811C298.08,45.71,298.08,45.6,298.08,45.48z M264.88,38c2-2.92,5.7-4.96,9.5-5.42c0.01,0,0.01,0,0.02,0   c0.53-0.07,1.06-0.1,1.6-0.1s1.07,0.03,1.6,0.1h0.03c3.82,0.46,7.61,2.5,9.62,5.42H264.88z"
   id="path29" />
	<path
   fill="#FFFFFF"
   d="M221.41,43.33h-9.4c-0.96-6.15-6.23-10.85-12.59-10.85c-7.04,0-12.75,5.76-12.75,12.88v20.72h-8.91v-20.6   c0-12.101,9.79-21.92,21.87-21.92C210.99,23.56,220.33,32.24,221.41,43.33z"
   id="path31" />
</g>
</svg>